<svg width="72" height="72" viewBox="0 0 72 72" fill="none" xmlns="http://www.w3.org/2000/svg">
<rect x="30.5872" y="19.5125" width="28.0248" height="18.9846" fill="black"/>
<path fill-rule="evenodd" clip-rule="evenodd" d="M12.1347 62.5721L12.0714 62.6427C11.2154 63.5917 9.92295 65.0273 10.1152 65.5139C10.1652 65.64 10.5937 66.2948 14.0686 66.5721H14.1027L14.1107 66.505C15.7929 66.497 16.616 65.6955 17.5697 64.7667L17.5776 64.759L17.5822 64.7546C18.6472 63.7145 19.8555 62.5345 22.2278 62.5345C24.5806 62.5345 25.7886 63.7041 26.85 64.7316L26.87 64.751C27.8261 65.6911 28.658 66.497 30.3449 66.497C32.0318 66.497 32.8548 65.6911 33.8118 64.751C34.878 63.7099 36.0864 62.5345 38.4541 62.5345C40.3649 62.5345 41.8918 63.4628 43.425 64.395C45.0591 65.3885 46.7005 66.3865 48.8217 66.2697C52.2656 66.0805 55.3691 63.9431 57.6286 61.6355C60.4328 58.7723 62.1697 54.8609 62.1697 50.5891V29.0819C62.1697 16.1373 52.2726 5.58546 39.6384 5.06487C39.328 5.05586 39.0177 5.04785 38.6983 5.04785C30.1607 5.04785 22.1107 9.82423 17.989 17.4048C15.8736 21.3001 14.9166 25.6821 15.2109 30.072C15.3451 32.1203 15.4211 34.1936 15.4882 36.1999L15.5101 36.7658C15.6116 39.3928 15.7161 42.0984 15.9748 44.7535C16.4373 49.4548 16.9569 54.7598 14.6152 59.3099C14.0317 60.4593 13.0719 61.5283 12.1347 62.5721ZM53.0755 34.6413C55.298 34.6413 57.106 32.8332 57.106 30.6097V25.5731C57.106 23.3496 55.298 21.5415 53.0755 21.5415C50.852 21.5415 49.044 23.3496 49.044 25.5731V30.6097C49.044 32.8322 50.853 34.6413 53.0755 34.6413ZM38.1317 25.9032C38.1317 25.495 38.1927 25.1008 38.3059 24.7292H46.0195C46.1328 25.1008 46.1938 25.4951 46.1938 25.9032V30.9409C46.1938 33.1644 44.3858 34.9724 42.1633 34.9724C39.9398 34.9724 38.1317 33.1634 38.1317 30.9409V25.9032Z" fill="white"/>
</svg>
