<svg width="957" height="394" viewBox="0 0 957 394" fill="none" xmlns="http://www.w3.org/2000/svg">
<path d="M2.156 367.572C3.59333 368.062 5.16133 368.454 6.86 368.748C8.59133 369.009 10.3063 369.14 12.005 369.14C14.3243 369.14 16.0393 369.042 17.15 368.846C18.2933 368.617 19.0447 368.274 19.404 367.817C19.7633 367.36 19.943 366.772 19.943 366.053C19.943 365.432 19.8123 364.942 19.551 364.583C19.2897 364.224 18.7833 363.946 18.032 363.75C17.2807 363.521 16.17 363.342 14.7 363.211L11.466 362.917C9.04867 362.688 7.13767 362.182 5.733 361.398C4.361 360.614 3.381 359.569 2.793 358.262C2.23767 356.923 1.96 355.322 1.96 353.46C1.96 351.239 2.401 349.442 3.283 348.07C4.19767 346.698 5.66767 345.702 7.693 345.081C9.71833 344.428 12.4133 344.101 15.778 344.101C20.1553 344.101 23.765 344.673 26.607 345.816L26.46 352.48L26.313 352.676C23.079 351.533 19.698 350.961 16.17 350.961C14.4713 350.961 13.1647 351.059 12.25 351.255C11.3353 351.418 10.6983 351.696 10.339 352.088C9.97967 352.48 9.8 353.035 9.8 353.754C9.8 354.473 9.91433 355.012 10.143 355.371C10.4043 355.73 10.9107 356.008 11.662 356.204C12.4133 356.367 13.5077 356.531 14.945 356.694L18.032 357.037C20.6453 357.331 22.6543 357.854 24.059 358.605C25.4637 359.356 26.4273 360.369 26.95 361.643C27.5053 362.884 27.783 364.403 27.783 366.2C27.783 368.389 27.3093 370.218 26.362 371.688C25.4473 373.125 23.9447 374.203 21.854 374.922C19.7633 375.641 16.9703 376 13.475 376C11.1883 376 9.13033 375.886 7.301 375.657C5.47167 375.396 3.69133 375.053 1.96 374.628V367.719L2.156 367.572ZM40.5437 384.673H32.7037V351.696H40.1517L40.5437 355.077V355.371H40.6417C41.197 354.032 41.981 353.052 42.9937 352.431C44.039 351.778 45.5417 351.451 47.5017 351.451C50.6703 351.451 52.9897 352.382 54.4597 354.244C55.9623 356.073 56.73 358.85 56.7627 362.574C56.828 365.873 56.485 368.519 55.7337 370.512C55.015 372.472 53.888 373.877 52.3527 374.726C50.8173 375.575 48.8573 376 46.4727 376C45.2313 376 44.1043 375.886 43.0917 375.657C42.1117 375.428 41.295 375.151 40.6417 374.824L40.5437 374.873V384.673ZM44.9537 358.115C43.647 358.115 42.5853 358.523 41.7687 359.34C40.952 360.124 40.5437 361.48 40.5437 363.407V368.552C41.7523 369.042 43.1733 369.287 44.8067 369.287C46.342 369.287 47.4363 368.928 48.0897 368.209C48.7757 367.458 49.1187 365.971 49.1187 363.75C49.1187 361.823 48.8573 360.402 48.3347 359.487C47.812 358.572 46.685 358.115 44.9537 358.115ZM59.2211 363.799C59.2211 359.422 60.1521 356.269 62.0141 354.342C63.8761 352.415 67.0284 351.451 71.4711 351.451C74.4438 351.451 76.8284 351.876 78.6251 352.725C80.4218 353.574 81.7121 354.914 82.4961 356.743C83.3128 358.54 83.7211 360.892 83.7211 363.799C83.7211 366.674 83.3128 369.009 82.4961 370.806C81.7121 372.603 80.4218 373.926 78.6251 374.775C76.8284 375.592 74.4438 376 71.4711 376C67.0284 376 63.8761 375.053 62.0141 373.158C60.1521 371.231 59.2211 368.111 59.2211 363.799ZM71.4711 369.287C73.3658 369.287 74.6398 368.879 75.2931 368.062C75.9791 367.213 76.3221 365.743 76.3221 363.652C76.3221 361.659 75.9791 360.238 75.2931 359.389C74.6398 358.507 73.3658 358.066 71.4711 358.066C69.6418 358.066 68.3678 358.507 67.6491 359.389C66.9631 360.238 66.6201 361.659 66.6201 363.652C66.6201 365.743 66.9631 367.213 67.6491 368.062C68.3678 368.879 69.6418 369.287 71.4711 369.287ZM86.1615 363.799C86.1615 359.422 87.0925 356.269 88.9545 354.342C90.8165 352.415 93.9689 351.451 98.4115 351.451C101.384 351.451 103.769 351.876 105.566 352.725C107.362 353.574 108.653 354.914 109.437 356.743C110.253 358.54 110.662 360.892 110.662 363.799C110.662 366.674 110.253 369.009 109.437 370.806C108.653 372.603 107.362 373.926 105.566 374.775C103.769 375.592 101.384 376 98.4115 376C93.9689 376 90.8165 375.053 88.9545 373.158C87.0925 371.231 86.1615 368.111 86.1615 363.799ZM98.4115 369.287C100.306 369.287 101.58 368.879 102.234 368.062C102.92 367.213 103.263 365.743 103.263 363.652C103.263 361.659 102.92 360.238 102.234 359.389C101.58 358.507 100.306 358.066 98.4115 358.066C96.5822 358.066 95.3082 358.507 94.5895 359.389C93.9035 360.238 93.5605 361.659 93.5605 363.652C93.5605 365.743 93.9035 367.213 94.5895 368.062C95.3082 368.879 96.5822 369.287 98.4115 369.287ZM122.657 375.559H114.817V342.582H122.657V361.79H122.755L128.929 351.696H137.553V351.892L130.301 363.162V363.358L138.729 375.559H129.713L122.804 364.534L122.657 364.485V375.559ZM143.879 384.575L147.652 375.608L138.195 351.794V351.696H146.966C147.881 354.277 148.73 356.874 149.514 359.487C150.331 362.1 150.984 364.779 151.474 367.523H151.572C152.062 364.812 152.683 362.149 153.434 359.536C154.218 356.923 155.1 354.309 156.08 351.696H164.508V351.843L151.915 384.673H143.879V384.575ZM208.408 367.621C208.408 370.234 207.591 372.211 205.958 373.55C204.357 374.889 201.515 375.559 197.432 375.559H182.144V344.542H184.055H196.942C199.653 344.542 201.76 344.836 203.263 345.424C204.798 345.979 205.876 346.812 206.497 347.923C207.118 349.034 207.428 350.422 207.428 352.088C207.428 354.375 206.873 356.155 205.762 357.429C204.684 358.67 202.642 359.422 199.637 359.683V359.83C201.858 359.993 203.606 360.369 204.88 360.957C206.154 361.512 207.052 362.329 207.575 363.407C208.13 364.485 208.408 365.89 208.408 367.621ZM194.786 350.716H189.984V356.792H194.786C196.387 356.792 197.546 356.596 198.265 356.204C198.984 355.779 199.343 354.963 199.343 353.754C199.343 352.578 198.984 351.778 198.265 351.353C197.546 350.928 196.387 350.716 194.786 350.716ZM195.766 363.211H189.984V369.434H195.766C197.367 369.434 198.526 369.222 199.245 368.797C199.964 368.34 200.323 367.507 200.323 366.298C200.323 365.057 199.964 364.24 199.245 363.848C198.526 363.423 197.367 363.211 195.766 363.211ZM220.657 375.559H212.817V344.542H227.615C231.502 344.542 234.328 345.424 236.092 347.188C237.889 348.919 238.787 351.484 238.787 354.881C238.787 357.429 238.15 359.618 236.876 361.447C235.602 363.244 233.92 364.371 231.829 364.828L231.78 364.975C232.597 365.498 233.495 366.363 234.475 367.572C235.455 368.781 236.419 370.104 237.366 371.541C238.346 372.946 239.212 374.269 239.963 375.51V375.559H230.849L225.557 367.719C225.1 367.033 224.724 366.543 224.43 366.249C224.169 365.955 223.842 365.775 223.45 365.71C223.091 365.645 222.503 365.612 221.686 365.612H220.657V375.559ZM226.341 350.912H220.657V359.242H226.341C227.974 359.242 229.101 358.915 229.722 358.262C230.375 357.609 230.702 356.547 230.702 355.077C230.702 353.607 230.375 352.545 229.722 351.892C229.101 351.239 227.974 350.912 226.341 350.912ZM267.527 368.846V375.02C265.959 375.347 264.424 375.592 262.921 375.755C261.418 375.918 259.638 376 257.58 376C254.934 376 252.696 375.771 250.867 375.314C249.07 374.857 247.617 374.056 246.506 372.913C245.428 371.737 244.644 370.087 244.154 367.964C243.664 365.841 243.419 363.113 243.419 359.781C243.419 356.58 243.664 353.95 244.154 351.892C244.644 349.834 245.428 348.25 246.506 347.139C247.617 345.996 249.07 345.212 250.867 344.787C252.696 344.33 254.934 344.101 257.58 344.101C259.638 344.101 261.418 344.183 262.921 344.346C264.424 344.477 265.959 344.722 267.527 345.081V351.451L267.38 351.549C266.008 351.222 264.685 350.994 263.411 350.863C262.137 350.7 260.569 350.618 258.707 350.618C257.204 350.618 255.963 350.732 254.983 350.961C254.036 351.157 253.284 351.565 252.729 352.186C252.174 352.807 251.782 353.721 251.553 354.93C251.357 356.139 251.259 357.756 251.259 359.781C251.259 361.904 251.357 363.619 251.553 364.926C251.782 366.2 252.174 367.164 252.729 367.817C253.284 368.47 254.036 368.911 254.983 369.14C255.963 369.369 257.204 369.483 258.707 369.483C260.536 369.483 262.088 369.434 263.362 369.336C264.669 369.205 265.975 368.977 267.282 368.65L267.527 368.846ZM270.792 354.097V347.678C271.936 346.959 273.438 346.371 275.3 345.914C277.162 345.457 279.188 345.228 281.376 345.228C284.872 345.228 287.665 345.914 289.755 347.286C291.879 348.658 292.94 350.977 292.94 354.244C292.94 356.825 292.336 358.899 291.127 360.467C289.951 362.002 287.861 363.342 284.855 364.485C281.948 365.596 279.939 366.543 278.828 367.327C277.75 368.078 277.211 368.83 277.211 369.581H293.185V375.804H269.959V370.316C269.959 368.65 270.237 367.229 270.792 366.053C271.38 364.877 272.377 363.799 273.781 362.819C275.186 361.839 277.13 360.826 279.612 359.781C281.474 358.997 282.928 358.246 283.973 357.527C285.051 356.776 285.574 355.877 285.541 354.832C285.509 353.591 285.035 352.725 284.12 352.235C283.238 351.712 281.981 351.451 280.347 351.451C278.779 351.451 277.179 351.729 275.545 352.284C273.912 352.807 272.475 353.411 271.233 354.097H270.792ZM321.78 360.614C321.78 364.338 321.355 367.327 320.506 369.581C319.656 371.835 318.284 373.468 316.39 374.481C314.495 375.494 311.963 376 308.795 376C305.659 376 303.143 375.494 301.249 374.481C299.354 373.468 297.982 371.835 297.133 369.581C296.283 367.327 295.859 364.338 295.859 360.614C295.859 356.857 296.283 353.852 297.133 351.598C297.982 349.344 299.354 347.711 301.249 346.698C303.143 345.685 305.659 345.179 308.795 345.179C311.963 345.179 314.495 345.685 316.39 346.698C318.284 347.711 319.656 349.344 320.506 351.598C321.355 353.852 321.78 356.857 321.78 360.614ZM308.795 369.483C311.016 369.483 312.47 368.764 313.156 367.327C313.874 365.857 314.234 363.619 314.234 360.614C314.234 357.576 313.874 355.338 313.156 353.901C312.47 352.464 311.016 351.745 308.795 351.745C306.606 351.745 305.152 352.464 304.434 353.901C303.748 355.338 303.405 357.576 303.405 360.614C303.405 363.619 303.748 365.857 304.434 367.327C305.152 368.764 306.606 369.483 308.795 369.483ZM348.947 375.559H341.107V344.542H348.947V375.559ZM362.68 375.559H354.84V351.696H362.288L362.68 356.057H362.827C363.285 354.587 364.101 353.46 365.277 352.676C366.453 351.859 368.087 351.451 370.177 351.451C373.019 351.451 375.11 352.251 376.449 353.852C377.821 355.453 378.507 358.229 378.507 362.182V375.559H370.667L370.618 363.701C370.618 361.872 370.341 360.565 369.785 359.781C369.23 358.997 368.185 358.605 366.649 358.605C365.212 358.605 364.199 358.964 363.611 359.683C363.023 360.369 362.713 361.561 362.68 363.26V375.559ZM382.808 368.797C385.356 369.516 388.182 369.875 391.285 369.875C392.788 369.875 393.915 369.826 394.666 369.728C395.418 369.63 395.924 369.467 396.185 369.238C396.447 369.009 396.577 368.699 396.577 368.307C396.577 367.752 396.365 367.409 395.94 367.278C395.548 367.147 394.748 366.968 393.539 366.739L389.668 366.004C387.186 365.514 385.389 364.746 384.278 363.701C383.2 362.623 382.661 361.022 382.661 358.899C382.661 356.024 383.511 354.064 385.209 353.019C386.941 351.974 389.685 351.451 393.441 351.451C395.695 351.451 397.672 351.582 399.37 351.843C401.102 352.072 402.539 352.366 403.682 352.725L403.584 358.654L403.437 358.801C400.791 357.952 397.9 357.527 394.764 357.527C393.229 357.527 392.151 357.641 391.53 357.87C390.942 358.066 390.648 358.474 390.648 359.095C390.648 359.422 390.73 359.683 390.893 359.879C391.089 360.075 391.514 360.271 392.167 360.467C392.821 360.63 393.85 360.843 395.254 361.104L398.831 361.79C400.824 362.215 402.294 362.917 403.241 363.897C404.189 364.877 404.662 366.429 404.662 368.552C404.662 370.414 404.319 371.9 403.633 373.011C402.947 374.089 401.788 374.857 400.154 375.314C398.554 375.771 396.332 376 393.49 376C391.334 376 389.342 375.902 387.512 375.706C385.716 375.477 384.099 375.216 382.661 374.922V368.895L382.808 368.797ZM427.388 368.65V375.02C426.571 375.347 425.363 375.592 423.762 375.755C422.161 375.918 420.463 376 418.666 376C416.085 376 413.929 375.641 412.198 374.922C410.499 374.203 409.225 372.962 408.376 371.198C407.559 369.434 407.135 366.984 407.102 363.848C407.102 360.614 407.543 358.099 408.425 356.302C409.34 354.505 410.663 353.248 412.394 352.529C414.125 351.81 416.2 351.451 418.617 351.451C420.054 351.451 421.573 351.549 423.174 351.745C424.775 351.941 426.081 352.202 427.094 352.529L427.143 359.095L426.996 359.193C426.016 358.997 424.971 358.85 423.86 358.752C422.749 358.654 421.655 358.605 420.577 358.605C418.388 358.605 416.869 359.013 416.02 359.83C415.171 360.647 414.746 362.019 414.746 363.946C414.746 365.416 414.926 366.51 415.285 367.229C415.644 367.948 416.249 368.421 417.098 368.65C417.947 368.879 419.107 368.993 420.577 368.993C421.72 368.993 422.815 368.944 423.86 368.846C424.905 368.748 426.016 368.634 427.192 368.503L427.388 368.65ZM439.626 375.559H431.786V351.696H438.156L438.793 356.596H438.94C439.234 354.767 439.936 353.46 441.047 352.676C442.157 351.859 443.807 351.451 445.996 351.451C446.878 351.451 447.678 351.5 448.397 351.598C449.115 351.663 449.72 351.729 450.21 351.794V359.438L450.112 359.536C449.589 359.405 448.985 359.291 448.299 359.193C447.645 359.095 446.894 359.046 446.045 359.046C444.836 359.046 443.742 359.242 442.762 359.634C441.814 360.026 441.063 360.794 440.508 361.937C439.985 363.048 439.724 364.714 439.724 366.935L439.626 375.559ZM461.053 342.827C461.151 344.003 461.2 344.983 461.2 345.767C461.2 346.224 461.184 346.698 461.151 347.188C461.151 347.645 461.118 348.168 461.053 348.756C460.367 348.887 459.697 348.985 459.044 349.05C458.391 349.115 457.737 349.148 457.084 349.148C456.463 349.148 455.826 349.115 455.173 349.05C454.552 348.985 453.915 348.887 453.262 348.756C453.197 348.201 453.148 347.694 453.115 347.237C453.082 346.747 453.066 346.273 453.066 345.816C453.066 345.391 453.082 344.934 453.115 344.444C453.148 343.954 453.197 343.415 453.262 342.827C453.915 342.664 454.569 342.566 455.222 342.533C455.908 342.468 456.578 342.435 457.231 342.435C457.852 342.435 458.472 342.468 459.093 342.533C459.746 342.566 460.4 342.664 461.053 342.827ZM461.053 375.559H453.213V351.696H461.053V375.559ZM474.318 384.673H466.478V351.696H473.926L474.318 355.077V355.371H474.416C474.971 354.032 475.755 353.052 476.768 352.431C477.813 351.778 479.316 351.451 481.276 351.451C484.445 351.451 486.764 352.382 488.234 354.244C489.737 356.073 490.504 358.85 490.537 362.574C490.602 365.873 490.259 368.519 489.508 370.512C488.789 372.472 487.662 373.877 486.127 374.726C484.592 375.575 482.632 376 480.247 376C479.006 376 477.879 375.886 476.866 375.657C475.886 375.428 475.069 375.151 474.416 374.824L474.318 374.873V384.673ZM478.728 358.115C477.421 358.115 476.36 358.523 475.543 359.34C474.726 360.124 474.318 361.48 474.318 363.407V368.552C475.527 369.042 476.948 369.287 478.581 369.287C480.116 369.287 481.211 368.928 481.864 368.209C482.55 367.458 482.893 365.971 482.893 363.75C482.893 361.823 482.632 360.402 482.109 359.487C481.586 358.572 480.459 358.115 478.728 358.115ZM495.201 368.405V358.115H492.261V351.745H495.936L497.406 345.914H503.041V351.745H508.382V358.115H503.041V366.69C503.041 367.605 503.155 368.242 503.384 368.601C503.612 368.928 504.135 369.091 504.952 369.091C505.474 369.091 506.03 369.075 506.618 369.042C507.206 368.977 507.794 368.911 508.382 368.846L508.529 368.944V375.314C506.961 375.771 504.886 376 502.306 376C499.725 376 497.896 375.412 496.818 374.236C495.74 373.06 495.201 371.116 495.201 368.405ZM520.341 342.827C520.439 344.003 520.488 344.983 520.488 345.767C520.488 346.224 520.472 346.698 520.439 347.188C520.439 347.645 520.406 348.168 520.341 348.756C519.655 348.887 518.985 348.985 518.332 349.05C517.679 349.115 517.025 349.148 516.372 349.148C515.751 349.148 515.114 349.115 514.461 349.05C513.84 348.985 513.203 348.887 512.55 348.756C512.485 348.201 512.436 347.694 512.403 347.237C512.37 346.747 512.354 346.273 512.354 345.816C512.354 345.391 512.37 344.934 512.403 344.444C512.436 343.954 512.485 343.415 512.55 342.827C513.203 342.664 513.857 342.566 514.51 342.533C515.196 342.468 515.866 342.435 516.519 342.435C517.14 342.435 517.76 342.468 518.381 342.533C519.034 342.566 519.688 342.664 520.341 342.827ZM520.341 375.559H512.501V351.696H520.341V375.559ZM524.051 363.799C524.051 359.422 524.982 356.269 526.844 354.342C528.706 352.415 531.859 351.451 536.301 351.451C539.274 351.451 541.659 351.876 543.455 352.725C545.252 353.574 546.542 354.914 547.326 356.743C548.143 358.54 548.551 360.892 548.551 363.799C548.551 366.674 548.143 369.009 547.326 370.806C546.542 372.603 545.252 373.926 543.455 374.775C541.659 375.592 539.274 376 536.301 376C531.859 376 528.706 375.053 526.844 373.158C524.982 371.231 524.051 368.111 524.051 363.799ZM536.301 369.287C538.196 369.287 539.47 368.879 540.123 368.062C540.809 367.213 541.152 365.743 541.152 363.652C541.152 361.659 540.809 360.238 540.123 359.389C539.47 358.507 538.196 358.066 536.301 358.066C534.472 358.066 533.198 358.507 532.479 359.389C531.793 360.238 531.45 361.659 531.45 363.652C531.45 365.743 531.793 367.213 532.479 368.062C533.198 368.879 534.472 369.287 536.301 369.287ZM560.547 375.559H552.707V351.696H560.155L560.547 356.057H560.694C561.151 354.587 561.968 353.46 563.144 352.676C564.32 351.859 565.953 351.451 568.044 351.451C570.886 351.451 572.976 352.251 574.316 353.852C575.688 355.453 576.374 358.229 576.374 362.182V375.559H568.534L568.485 363.701C568.485 361.872 568.207 360.565 567.652 359.781C567.096 358.997 566.051 358.605 564.516 358.605C563.078 358.605 562.066 358.964 561.478 359.683C560.89 360.369 560.579 361.561 560.547 363.26V375.559ZM580.675 368.797C583.223 369.516 586.048 369.875 589.152 369.875C590.654 369.875 591.781 369.826 592.533 369.728C593.284 369.63 593.79 369.467 594.052 369.238C594.313 369.009 594.444 368.699 594.444 368.307C594.444 367.752 594.231 367.409 593.807 367.278C593.415 367.147 592.614 366.968 591.405 366.739L587.535 366.004C585.052 365.514 583.255 364.746 582.145 363.701C581.067 362.623 580.528 361.022 580.528 358.899C580.528 356.024 581.377 354.064 583.076 353.019C584.807 351.974 587.551 351.451 591.308 351.451C593.562 351.451 595.538 351.582 597.237 351.843C598.968 352.072 600.405 352.366 601.549 352.725L601.451 358.654L601.304 358.801C598.658 357.952 595.767 357.527 592.631 357.527C591.095 357.527 590.017 357.641 589.397 357.87C588.809 358.066 588.515 358.474 588.515 359.095C588.515 359.422 588.596 359.683 588.76 359.879C588.956 360.075 589.38 360.271 590.034 360.467C590.687 360.63 591.716 360.843 593.121 361.104L596.698 361.79C598.69 362.215 600.16 362.917 601.108 363.897C602.055 364.877 602.529 366.429 602.529 368.552C602.529 370.414 602.186 371.9 601.5 373.011C600.814 374.089 599.654 374.857 598.021 375.314C596.42 375.771 594.199 376 591.357 376C589.201 376 587.208 375.902 585.379 375.706C583.582 375.477 581.965 375.216 580.528 374.922V368.895L580.675 368.797ZM619.659 363.799C619.659 359.422 620.59 356.269 622.452 354.342C624.314 352.415 627.466 351.451 631.909 351.451C634.881 351.451 637.266 351.876 639.063 352.725C640.859 353.574 642.15 354.914 642.934 356.743C643.75 358.54 644.159 360.892 644.159 363.799C644.159 366.674 643.75 369.009 642.934 370.806C642.15 372.603 640.859 373.926 639.063 374.775C637.266 375.592 634.881 376 631.909 376C627.466 376 624.314 375.053 622.452 373.158C620.59 371.231 619.659 368.111 619.659 363.799ZM631.909 369.287C633.803 369.287 635.077 368.879 635.731 368.062C636.417 367.213 636.76 365.743 636.76 363.652C636.76 361.659 636.417 360.238 635.731 359.389C635.077 358.507 633.803 358.066 631.909 358.066C630.079 358.066 628.805 358.507 628.087 359.389C627.401 360.238 627.058 361.659 627.058 363.652C627.058 365.743 627.401 367.213 628.087 368.062C628.805 368.879 630.079 369.287 631.909 369.287ZM656.154 375.559H648.314V351.696H655.762L656.154 356.057H656.301C656.758 354.587 657.575 353.46 658.751 352.676C659.927 351.859 661.56 351.451 663.651 351.451C666.493 351.451 668.584 352.251 669.923 353.852C671.295 355.453 671.981 358.229 671.981 362.182V375.559H664.141L664.092 363.701C664.092 361.872 663.814 360.565 663.259 359.781C662.704 358.997 661.658 358.605 660.123 358.605C658.686 358.605 657.673 358.964 657.085 359.683C656.497 360.369 656.187 361.561 656.154 363.26V375.559Z" fill="white"/>
<path d="M359.571 102.058C359.571 73.2638 373.712 56.8098 401.221 56.8098C428.73 56.8098 442.87 73.2638 442.87 102.058V107.714H416.132V100.259C416.132 87.404 410.99 82.5192 401.992 82.5192C392.994 82.5192 387.852 87.404 387.852 100.259C387.852 113.37 393.508 123.14 412.019 139.337C435.671 160.161 443.127 175.073 443.127 195.64C443.127 224.435 428.73 240.889 400.964 240.889C373.197 240.889 358.8 224.435 358.8 195.64V184.585H385.538V197.44C385.538 210.295 391.194 214.922 400.192 214.922C409.191 214.922 414.847 210.295 414.847 197.44C414.847 184.328 409.191 174.559 390.68 158.362C367.027 137.537 359.571 122.626 359.571 102.058ZM500.973 58.8666C529.253 58.8666 543.136 74.5493 543.136 103.344V126.739C543.136 155.534 529.253 171.217 500.973 171.217H487.604V238.832H459.324V58.8666H500.973ZM500.973 84.5759H487.604V145.507H500.973C509.971 145.507 514.856 141.394 514.856 128.539V101.544C514.856 88.6894 509.971 84.5759 500.973 84.5759ZM582.215 100.259V197.44C582.215 210.295 587.871 215.18 596.869 215.18C605.867 215.18 611.523 210.295 611.523 197.44V100.259C611.523 87.404 605.867 82.5192 596.869 82.5192C587.871 82.5192 582.215 87.404 582.215 100.259ZM553.934 195.64V102.058C553.934 73.2638 569.103 56.8098 596.869 56.8098C624.635 56.8098 639.804 73.2638 639.804 102.058V195.64C639.804 224.435 624.635 240.889 596.869 240.889C569.103 240.889 553.934 224.435 553.934 195.64ZM684.024 100.259V197.44C684.024 210.295 689.68 215.18 698.678 215.18C707.676 215.18 713.332 210.295 713.332 197.44V100.259C713.332 87.404 707.676 82.5192 698.678 82.5192C689.68 82.5192 684.024 87.404 684.024 100.259ZM655.743 195.64V102.058C655.743 73.2638 670.912 56.8098 698.678 56.8098C726.444 56.8098 741.613 73.2638 741.613 102.058V195.64C741.613 224.435 726.444 240.889 698.678 240.889C670.912 240.889 655.743 224.435 655.743 195.64ZM824.397 238.832L796.888 167.103L788.147 183.557V238.832H759.866V58.8666H788.147V136.766H788.661L825.168 58.8666H853.448L814.113 139.08L853.448 238.832H824.397ZM892.784 238.832V179.186L857.048 58.8666H886.614L907.952 140.879H908.467L929.805 58.8666H956.8L921.064 179.186V238.832H892.784Z" fill="#F6F6F6"/>
<path d="M149.5 299C232.067 299 299 232.067 299 149.5C299 66.9328 232.067 0 149.5 0C66.9328 0 0 66.9328 0 149.5C0 232.067 66.9328 299 149.5 299ZM63.893 229.619C67.069 226.081 70.3547 222.459 72.3347 218.559C80.1054 203.46 78.3812 185.855 76.8463 170.254C75.9261 160.809 75.5938 151.171 75.2317 141.869C75.0091 135.211 74.7566 128.331 74.3115 121.534C73.3347 106.966 76.5108 92.4242 83.5306 79.4975C97.2082 54.3416 123.922 38.4913 152.254 38.4913C153.314 38.4913 154.344 38.5178 155.374 38.5477C197.3 40.2753 230.144 75.2915 230.144 118.248V189.619C230.144 203.795 224.38 216.775 215.074 226.277C207.576 233.934 197.277 241.027 185.848 241.655C172.204 242.406 164.543 229.26 151.443 229.26C143.586 229.26 139.577 233.16 136.038 236.615C132.862 239.735 130.131 242.409 124.534 242.409C118.936 242.409 116.175 239.735 113.002 236.615C109.464 233.19 105.454 229.26 97.5969 229.26C89.7133 229.26 85.7034 233.187 82.1652 236.642C78.9892 239.735 76.2583 242.409 70.6603 242.436L70.6338 242.658H70.5208C58.9894 241.738 57.5675 239.565 57.4014 239.147C56.7635 237.532 61.0525 232.768 63.893 229.619Z" fill="white"/>
<path d="M199.965 136.697C207.34 136.697 213.34 130.697 213.34 123.318V106.604C213.34 99.2253 207.34 93.2253 199.965 93.2253C192.586 93.2253 186.586 99.2253 186.586 106.604V123.318C186.586 130.693 192.589 136.697 199.965 136.697Z" fill="white"/>
<path fill-rule="evenodd" clip-rule="evenodd" d="M150.952 103.804C150.576 105.037 150.374 106.345 150.374 107.7V124.417C150.374 131.792 156.374 137.796 163.752 137.796C171.128 137.796 177.128 131.796 177.128 124.417V107.7C177.128 106.345 176.925 105.037 176.549 103.804H150.952Z" fill="white"/>
<path d="M759.081 357.541C759.081 377.168 743.168 393.081 723.541 393.081C738.261 393.081 750.196 381.146 750.196 366.426C750.196 351.705 738.261 339.77 723.541 339.77C708.82 339.77 696.885 351.705 696.885 366.426C696.885 381.146 708.82 393.081 723.541 393.081C703.913 393.081 688 377.168 688 357.541C688 337.913 703.913 322 723.541 322C743.168 322 759.081 337.913 759.081 357.541ZM723.541 357.541C713.727 357.541 705.77 365.497 705.77 375.311C705.77 384.513 712.79 391.992 721.749 392.899C717.701 392.07 714.655 388.491 714.655 384.196C714.655 379.289 718.634 375.311 723.541 375.311C728.447 375.311 732.426 379.289 732.426 384.196C732.426 388.491 729.38 392.07 725.332 392.899C734.291 391.992 741.311 384.513 741.311 375.311C741.311 365.497 733.354 357.541 723.541 357.541Z" fill="white"/>
<path d="M789.599 351.036V359.336H782.254V379.877H773.297V350.081C773.297 340.169 780.582 334.795 789.778 334.795C790.076 334.795 790.494 334.795 790.912 334.854C791.33 334.914 791.808 335.034 792.226 335.093V343.751C791.927 343.692 791.569 343.632 791.151 343.572C790.733 343.513 790.375 343.453 790.076 343.453C788.583 343.453 787.389 343.632 786.374 343.931C784.702 344.528 783.209 345.662 782.672 347.454C782.373 348.23 782.254 349.126 782.254 350.021V351.036H789.599ZM805.064 364.949V379.877H796.107V365.009C796.107 355.097 803.392 349.723 812.588 349.723C812.886 349.723 813.304 349.723 813.722 349.782C814.14 349.842 814.618 349.962 815.036 350.021V358.679C814.737 358.62 814.379 358.56 813.961 358.5C813.543 358.441 813.185 358.381 812.886 358.381C811.393 358.381 810.199 358.56 809.184 358.859C807.512 359.456 806.019 360.59 805.482 362.382C805.183 363.158 805.064 364.054 805.064 364.949ZM839.876 364.949C839.637 360.59 837.667 358.023 833.129 358.023C831.875 358.023 830.8 358.202 829.904 358.56C827.157 359.814 826.142 362.143 826.142 365.009C826.142 365.964 826.262 366.86 826.56 367.636C827.456 370.741 830.143 371.876 833.129 371.876C837.667 371.876 839.876 369.428 839.876 364.949ZM851.221 379.877H842.265C841.667 378.384 841.13 376.892 840.772 375.339C838.742 378.683 835.637 380.176 831.815 380.176C823.276 380.176 817.186 373.01 817.186 364.83C817.186 355.395 824.232 349.723 833.129 349.723C842.623 349.723 848.594 355.813 848.833 364.949C848.893 365.725 848.893 366.621 848.893 367.696C848.893 371.876 849.549 376.056 851.221 379.877ZM878.271 370.025V378.982C875.226 379.997 872.061 380.295 868.896 380.295C859.641 380.295 853.072 374.145 853.072 365.009C853.072 355.515 859.88 349.723 868.896 349.723C872.061 349.723 875.226 350.021 878.271 351.036V359.993C875.644 358.62 872.359 358.261 869.433 358.261C867.463 358.261 865.074 358.679 863.701 360.232C862.447 361.486 862.029 363.277 862.029 364.949C862.029 365.905 862.149 366.8 862.447 367.577C862.686 368.412 863.104 369.129 863.701 369.726C865.015 371.338 867.463 371.756 869.433 371.756C872.061 371.756 875.942 371.279 878.271 370.025ZM900.125 351.036V359.336H891.766V364.949C891.766 369.547 894.811 371.876 899.23 371.876C899.767 371.876 900.245 371.816 900.663 371.756C901.081 371.697 901.439 371.637 901.857 371.577V379.877C901.32 379.937 900.902 380.056 900.603 380.116C900.245 380.176 899.648 380.176 898.871 380.176C889.855 380.176 882.809 374.025 882.809 364.949V342.856H891.766V351.036H900.125ZM927.414 364.949C927.175 360.59 925.204 358.023 920.666 358.023C919.412 358.023 918.338 358.202 917.442 358.56C914.695 359.814 913.68 362.143 913.68 365.009C913.68 365.964 913.799 366.86 914.098 367.636C914.994 370.741 917.681 371.876 920.666 371.876C925.204 371.876 927.414 369.428 927.414 364.949ZM938.759 379.877H929.802C929.205 378.384 928.668 376.892 928.309 375.339C926.279 378.683 923.174 380.176 919.353 380.176C910.814 380.176 904.723 373.01 904.723 364.83C904.723 355.395 911.769 349.723 920.666 349.723C930.161 349.723 936.132 355.813 936.371 364.949C936.43 365.725 936.43 366.621 936.43 367.696C936.43 371.876 937.087 376.056 938.759 379.877ZM942.043 338.079H951V379.877H942.043V338.079Z" fill="white"/>
</svg>
