<svg width="12" height="10" viewBox="0 0 12 10" fill="none" xmlns="http://www.w3.org/2000/svg">
<path fill-rule="evenodd" clip-rule="evenodd" d="M9.19199 9.88959C9.35299 10.0036 9.56048 10.0321 9.74548 9.96209C9.93047 9.89159 10.0665 9.73359 10.1075 9.54209C10.542 7.50008 11.5959 2.33158 11.9914 0.474075C12.0214 0.334074 11.9714 0.188574 11.8614 0.0950743C11.7514 0.00157415 11.5989 -0.0254259 11.4629 0.0250741C9.36649 0.801075 2.91013 3.22358 0.271193 4.20008C0.103697 4.26208 -0.00530095 4.42308 0.000198922 4.59958C0.00619879 4.77658 0.125196 4.93008 0.296692 4.98158C1.48017 5.33558 3.03363 5.82808 3.03363 5.82808C3.03363 5.82808 3.75961 8.02058 4.1381 9.13559C4.1856 9.27559 4.2951 9.38559 4.4396 9.42359C4.58359 9.46109 4.73759 9.42159 4.84509 9.32009C5.45307 8.74608 6.39305 7.85858 6.39305 7.85858C6.39305 7.85858 8.17901 9.16809 9.19199 9.88959ZM3.68712 5.55108L4.5266 8.32008L4.71309 6.56658C4.71309 6.56658 7.95652 3.64108 9.80548 1.97358C9.85948 1.92458 9.86697 1.84258 9.82198 1.78508C9.77748 1.72758 9.69548 1.71408 9.63398 1.75308C7.49103 3.12158 3.68712 5.55108 3.68712 5.55108Z" fill="white"/>
</svg>
